<svg width="9" height="23" viewBox="0 0 9 23" fill="none" xmlns="http://www.w3.org/2000/svg">
<path fill-rule="evenodd" clip-rule="evenodd" d="M2.35546 20.0271H4.49074C5.05994 20.0271 5.60583 19.8027 6.00832 19.4033C6.41081 19.0039 6.63692 18.4622 6.63692 17.8973V11.6595C6.63836 11.3798 6.58426 11.1026 6.47773 10.8437C6.3712 10.5847 6.21431 10.3492 6.01603 10.1504C5.81775 9.95162 5.58196 9.79355 5.32212 9.68521C5.06228 9.57687 4.78348 9.52038 4.50164 9.51897H2.35546V20.0055V20.0271ZM1.01546 22.2541C0.753871 22.2103 0.516726 22.075 0.34689 21.8727C0.177054 21.6705 0.0857349 21.4146 0.0894411 21.1514V1.77843C0.0875154 1.63021 0.115432 1.48309 0.171555 1.34572C0.227677 1.20835 0.310875 1.08347 0.41627 0.978427C0.543783 0.847036 0.701872 0.748744 0.876638 0.692192C1.0514 0.63564 1.23749 0.62256 1.41855 0.654102C1.96326 0.762211 2.35546 1.21626 2.35546 1.76762V7.28113H4.49074C5.06965 7.27971 5.64315 7.39163 6.17839 7.61048C6.71364 7.82934 7.20012 8.15082 7.60998 8.55653C8.01983 8.96224 8.345 9.4442 8.56687 9.9748C8.78874 10.5054 8.90294 11.0742 8.90294 11.6487V17.8865C8.90006 19.044 8.43543 20.1533 7.61065 20.9717C6.78587 21.7902 5.66805 22.2512 4.50164 22.2541H1.22245C1.14964 22.2584 1.07658 22.2548 1.00456 22.2433L1.01546 22.2541Z" fill="#333545"/>
</svg>
