<svg width="104" height="23" viewBox="0 0 104 23" fill="none" xmlns="http://www.w3.org/2000/svg">
<path fill-rule="evenodd" clip-rule="evenodd" d="M5.58342 9.43237C5.4611 9.41115 5.33719 9.4003 5.21302 9.39993C4.93037 9.39704 4.64998 9.45015 4.38827 9.55616C4.12657 9.66216 3.88882 9.81893 3.68894 10.0173C3.48907 10.2156 3.33109 10.4515 3.22427 10.7112C3.11744 10.9709 3.06392 11.2492 3.06684 11.5297V18.027C3.06539 18.307 3.11992 18.5846 3.22726 18.8437C3.33461 19.1027 3.49264 19.338 3.69222 19.5361C3.8918 19.7341 4.12897 19.891 4.39 19.9975C4.65104 20.104 4.93077 20.1581 5.21302 20.1567C5.78222 20.1567 6.32811 19.9323 6.73059 19.5329C7.13308 19.1335 7.35919 18.5918 7.35919 18.027V11.5405C7.35919 10.4918 6.60749 9.61615 5.58342 9.43237ZM4.43952 22.3513C3.41807 22.173 2.4929 21.6424 1.82718 20.8532C1.16146 20.0641 0.79797 19.0669 0.80082 18.0378V11.5405C0.798902 10.9655 0.91257 10.3958 1.13517 9.86494C1.35778 9.33404 1.68485 8.85253 2.09724 8.44858C2.5063 8.04275 2.99215 7.72114 3.52685 7.50222C4.06156 7.2833 4.63459 7.17138 5.21302 7.17291C6.38031 7.17291 7.4998 7.63306 8.3252 8.45214C9.15061 9.27121 9.61432 10.3821 9.61432 11.5405V18.0378C9.61432 19.2053 9.15675 20.308 8.31789 21.1405C7.91048 21.5455 7.42648 21.8667 6.89366 22.0856C6.36084 22.3045 5.7897 22.4168 5.21302 22.4161C4.95376 22.4172 4.69492 22.3955 4.43952 22.3513ZM17.2948 9.44318C17.1725 9.42191 17.0486 9.41106 16.9244 9.41074C16.6417 9.40785 16.3614 9.46096 16.0997 9.56697C15.838 9.67297 15.6002 9.82974 15.4003 10.0281C15.2004 10.2264 15.0425 10.4624 14.9356 10.7221C14.8288 10.9817 14.7753 11.26 14.7782 11.5405V18.0378C14.7768 18.3178 14.8313 18.5954 14.9386 18.8545C15.046 19.1135 15.204 19.3489 15.4036 19.5469C15.6032 19.745 15.8403 19.9018 16.1014 20.0083C16.3624 20.1148 16.6422 20.1689 16.9244 20.1675C17.2066 20.1689 17.4864 20.1148 17.7474 20.0083C18.0084 19.9018 18.2456 19.745 18.4452 19.5469C18.6448 19.3489 18.8028 19.1135 18.9101 18.8545C19.0175 18.5954 19.072 18.3178 19.0706 18.0378V11.5405C19.0706 10.5026 18.3189 9.62696 17.2948 9.44318ZM16.1509 22.3513C15.1315 22.1707 14.2088 21.6392 13.5453 20.8502C12.8817 20.0613 12.5198 19.0654 12.5231 18.0378V11.5405C12.5248 10.9033 12.6666 10.2743 12.9386 9.69712C13.2107 9.12 13.6063 8.60874 14.0981 8.19903C14.5898 7.78933 15.1657 7.49105 15.7855 7.32502C16.4054 7.159 17.0543 7.12922 17.687 7.23777C18.7086 7.4135 19.6349 7.94148 20.3026 8.72864C20.9702 9.51579 21.3364 10.5116 21.3366 11.5405V18.0378C21.3379 18.6153 21.223 19.1872 20.9985 19.72C20.774 20.2529 20.4445 20.7358 20.0293 21.1405C19.6219 21.5455 19.1379 21.8667 18.605 22.0856C18.0722 22.3045 17.5011 22.4168 16.9244 22.4161C16.6629 22.4161 16.4015 22.3945 16.1509 22.3513ZM25.1605 22.3945C24.8989 22.3507 24.6618 22.2154 24.4919 22.0132C24.3221 21.8109 24.2308 21.5551 24.2345 21.2918V1.77831C24.2345 1.47561 24.3434 1.18372 24.5613 0.978313C24.6898 0.852421 24.847 0.759166 25.0196 0.706467C25.1922 0.653769 25.3751 0.643183 25.5527 0.67561C26.0974 0.762096 26.5005 1.22696 26.5005 1.77831V13.3243L31.708 7.52966C31.9694 7.24858 32.3616 7.11885 32.7538 7.18372C32.9516 7.21655 33.1368 7.30136 33.2904 7.42933C33.4439 7.5573 33.5601 7.72375 33.6268 7.91136C33.6935 8.09898 33.7084 8.30091 33.6698 8.49615C33.6312 8.6914 33.5407 8.87282 33.4075 9.02155L29.4746 13.3783L33.5382 20.7621C33.6114 20.8866 33.6587 21.0244 33.6774 21.1674C33.6961 21.3103 33.6858 21.4556 33.6472 21.5945C33.6051 21.7377 33.5341 21.871 33.4386 21.9862C33.3431 22.1014 33.225 22.1962 33.0915 22.2648C32.8609 22.3964 32.5906 22.4424 32.3289 22.3945C32.1662 22.3672 32.0115 22.3046 31.8759 22.2112C31.7403 22.1178 31.6272 21.9958 31.5446 21.854L27.8841 15.1729L26.4896 16.6972V21.2918C26.4896 21.59 26.3702 21.876 26.1577 22.0868C25.9453 22.2977 25.6571 22.4161 25.3566 22.4161C25.2803 22.4161 25.215 22.4161 25.1387 22.3945H25.1605ZM75.0673 22.3837C74.4547 22.2819 73.8727 22.0456 73.3638 21.6921C72.8549 21.3386 72.432 20.8768 72.1259 20.3405C71.9762 20.0777 71.937 19.7669 72.0169 19.4756C72.1041 19.1945 72.2893 18.9567 72.5398 18.8053C72.7725 18.6792 73.042 18.6372 73.3024 18.6864C73.6293 18.7405 73.9234 18.9351 74.0868 19.227C74.381 19.7243 74.8494 20.0486 75.4268 20.1459C75.7245 20.1972 76.0301 20.1811 76.3206 20.0987C76.6111 20.0163 76.8791 19.8698 77.1046 19.6702C77.5403 19.2702 77.7582 18.6972 77.7037 18.1351C77.6916 17.8469 77.6114 17.5656 77.4694 17.314C77.3275 17.0623 77.1278 16.8473 76.8867 16.6864L73.8363 14.5351C73.3393 14.1888 72.9254 13.7379 72.6241 13.2147C72.3228 12.6915 72.1415 12.1088 72.0932 11.508C72.0538 10.902 72.1539 10.2949 72.3861 9.73301C72.6183 9.17107 72.9763 8.66897 73.4332 8.2648C73.8789 7.85366 74.4113 7.54622 74.9917 7.36482C75.5721 7.18343 76.1859 7.13264 76.7886 7.21615C78.0742 7.43237 79.12 8.1675 79.7192 9.20534C79.8636 9.46469 79.9011 9.76946 79.8239 10.0557C79.7467 10.3419 79.5608 10.5873 79.3052 10.7405C79.0745 10.8721 78.8043 10.918 78.5426 10.8702C78.3798 10.8429 78.2252 10.7803 78.0896 10.6869C77.954 10.5934 77.8408 10.4715 77.7582 10.3297C77.6215 10.1003 77.4354 9.9038 77.2131 9.75427C76.9909 9.60474 76.738 9.50588 76.4727 9.4648C76.2012 9.41604 75.9221 9.43071 75.6573 9.50765C75.3926 9.58459 75.1495 9.72167 74.9475 9.90804C74.7502 10.0928 74.5962 10.3183 74.4965 10.5687C74.3967 10.819 74.3535 11.088 74.3701 11.3567C74.3919 11.8864 74.6969 12.4053 75.1545 12.708L78.2049 14.8161C78.7227 15.1759 79.1509 15.6483 79.4567 16.1973C79.7626 16.7462 79.9381 17.3572 79.9698 17.9837C80.0202 18.6073 79.9234 19.2339 79.687 19.8138C79.4506 20.3937 79.0811 20.9109 78.608 21.3243C78.1478 21.7486 77.598 22.0658 76.9987 22.2528C76.3995 22.4398 75.7657 22.4919 75.1436 22.4053L75.0564 22.3837H75.0673ZM83.8154 22.4161C83.5538 22.3705 83.3166 22.2351 83.1453 22.0335C82.9741 21.832 82.8796 21.5771 82.8785 21.3134V1.79993C82.8771 1.65188 82.9054 1.50503 82.9618 1.36797C83.0182 1.23091 83.1016 1.10639 83.2071 1.0017C83.3126 0.897005 83.4381 0.814242 83.5762 0.758251C83.7144 0.70226 83.8624 0.674165 84.0115 0.67561L84.2294 0.686421C84.7741 0.794529 85.1446 1.23777 85.1446 1.79993V7.31345H87.2907C87.8691 7.31202 88.4421 7.42402 88.9767 7.643C89.5114 7.86199 89.9971 8.18365 90.4061 8.5895C90.8151 8.99535 91.1393 9.47739 91.3599 10.0079C91.5806 10.5385 91.6935 11.1071 91.692 11.681V21.3026C91.693 21.4659 91.6577 21.6273 91.5888 21.7755C91.5199 21.9238 91.4189 22.0551 91.2932 22.1603C91.1674 22.2655 91.0198 22.342 90.861 22.3844C90.7021 22.4267 90.5358 22.4339 90.3738 22.4053C89.8291 22.308 89.4369 21.8432 89.4369 21.2918V11.6702C89.4369 11.391 89.3813 11.1146 89.2733 10.8568C89.1654 10.599 89.0071 10.365 88.8077 10.1681C88.6082 9.97116 88.3715 9.81531 88.1112 9.70946C87.8509 9.60362 87.5721 9.54986 87.2907 9.55128H85.1446V21.3026C85.1458 21.467 85.1104 21.6295 85.0408 21.7787C84.9712 21.9278 84.8693 22.0598 84.7422 22.1652C84.6152 22.2706 84.4662 22.3468 84.306 22.3883C84.1457 22.4298 83.9782 22.4357 83.8154 22.4053V22.4161ZM99.3725 9.45399C99.0638 9.39838 98.7465 9.41097 98.4433 9.49087C98.14 9.57076 97.8582 9.716 97.618 9.91624C97.3777 10.1165 97.1848 10.3668 97.0531 10.6494C96.9214 10.932 96.8541 11.2399 96.8559 11.5513V18.0486C96.8545 18.3277 96.9087 18.6044 97.0153 18.8628C97.122 19.1211 97.2791 19.356 97.4775 19.5539C97.6759 19.7518 97.9118 19.9088 98.1716 20.016C98.4313 20.1231 98.7099 20.1783 98.9912 20.1783C99.5577 20.1783 100.102 19.9621 100.506 19.5621C100.707 19.3644 100.867 19.1287 100.976 18.8687C101.084 18.6088 101.139 18.3299 101.137 18.0486V11.5405C101.137 10.5026 100.397 9.61615 99.3616 9.44318L99.3725 9.45399ZM98.2177 22.3405C97.1992 22.1622 96.2767 21.6328 95.6131 20.8457C94.9494 20.0585 94.587 19.0641 94.5899 18.0378V11.5405C94.59 10.9024 94.7307 10.2721 95.002 9.69366C95.2734 9.11521 95.6688 8.6026 96.1607 8.19171C96.6526 7.78081 97.2291 7.48157 97.8497 7.31492C98.4704 7.14828 99.1202 7.11826 99.7538 7.22696C100.777 7.403 101.705 7.93256 102.373 8.72196C103.041 9.51136 103.406 10.5097 103.403 11.5405V18.0378C103.404 18.6135 103.289 19.1836 103.064 19.7146C102.84 20.2455 102.51 20.7266 102.096 21.1297C101.596 21.6276 100.983 21.9979 100.307 22.2087C99.6316 22.4196 98.9147 22.4648 98.2177 22.3405Z" fill="#333545"/>
</svg>
