<svg width="40" height="38" viewBox="0 0 40 38" fill="none" xmlns="http://www.w3.org/2000/svg">
<path fill-rule="evenodd" clip-rule="evenodd" d="M39.1041 11.227L36.9252 7.57296L33.0577 9.39999L30.8789 5.73512L27.0114 7.57296L24.8434 3.89729L20.976 5.73512L18.7971 2.07026L14.9296 3.9081L12.7616 0.232422L8.88327 2.07026L0.679852 28.5784L10.6481 31.6054C11.0236 30.4106 11.8174 29.3885 12.8861 28.7238C13.9547 28.0591 15.2277 27.7957 16.475 27.9811C17.7223 28.1665 18.8616 28.7885 19.6871 29.7347C20.5126 30.681 20.9697 31.889 20.976 33.1405V33.2486C20.9977 33.7243 20.9433 34.2 20.8016 34.6757L30.9334 37.7567L39.1041 11.227Z" fill="#D61920"/>
</svg>
