<svg width="27" height="22" viewBox="0 0 27 22" fill="none" xmlns="http://www.w3.org/2000/svg">
<path fill-rule="evenodd" clip-rule="evenodd" d="M1.23188 15.3946C0.979887 15.3532 0.751186 15.2236 0.587279 15.0292C0.423373 14.8348 0.335124 14.5885 0.338547 14.3351V1.36213C0.337091 1.21976 0.364277 1.07853 0.41851 0.946712C0.472743 0.814896 0.552933 0.695143 0.654388 0.594466C0.755842 0.493789 0.876522 0.414213 1.00936 0.360395C1.14219 0.306578 1.28451 0.279601 1.42798 0.281046H10.8733C11.4299 0.279625 11.9812 0.386994 12.4959 0.597023C13.0107 0.807052 13.4786 1.11563 13.8732 1.50513C14.2677 1.89464 14.5811 2.35744 14.7954 2.86712C15.0097 3.3768 15.1207 3.92338 15.1221 4.47564V14.3351C15.1218 14.4943 15.0861 14.6515 15.0175 14.7954C14.9489 14.9394 14.8491 15.0665 14.7253 15.1677C14.6014 15.2689 14.4565 15.3417 14.301 15.3809C14.1455 15.4202 13.9832 15.4248 13.8257 15.3946C13.5757 15.3509 13.3496 15.2203 13.1879 15.0261C13.0261 14.8319 12.9394 14.587 12.9433 14.3351V4.48645C12.9433 3.94168 12.7252 3.41923 12.337 3.03402C11.9488 2.64881 11.4223 2.4324 10.8733 2.4324H8.81432V14.3243C8.81518 14.4691 8.78668 14.6127 8.73054 14.7464C8.67439 14.8801 8.59174 15.0013 8.48749 15.1027C8.36346 15.2247 8.2114 15.3151 8.04441 15.3659C7.87741 15.4168 7.70047 15.4266 7.52879 15.3946C7.2768 15.3532 7.0481 15.2236 6.88419 15.0292C6.72029 14.8348 6.63204 14.5885 6.63546 14.3351V2.4324H2.51741V14.3243C2.51843 14.4833 2.48407 14.6406 2.4168 14.785C2.34953 14.9293 2.25099 15.0571 2.12822 15.1593C2.00545 15.2616 1.86146 15.3356 1.70652 15.3763C1.55159 15.417 1.38952 15.4232 1.23188 15.3946ZM16.9415 21.0486C16.6876 21.007 16.4574 20.8758 16.2933 20.6791C16.1291 20.4825 16.0421 20.2336 16.0481 19.9783C16.0493 19.6947 16.1628 19.4229 16.3641 19.2216C16.5652 19.0179 16.8393 18.9013 17.1267 18.8973C18.0527 18.8973 18.848 18.3135 19.1094 17.4378L20.2316 13.7297L16.5602 1.54591C16.5164 1.40965 16.5003 1.26611 16.5128 1.12363C16.5253 0.981144 16.5662 0.842539 16.6331 0.715843C16.6999 0.589147 16.7915 0.47688 16.9024 0.385543C17.0133 0.294207 17.1414 0.225618 17.2792 0.18375C17.5536 0.108264 17.8468 0.140202 18.0981 0.272974C18.3495 0.405745 18.5399 0.629216 18.6301 0.897263L21.3537 9.97834L24.1208 0.897263C24.2516 0.399966 24.8072 0.0648306 25.3737 0.172939L25.4499 0.18375C26.0382 0.367534 26.3651 0.983749 26.1908 1.55672L22.4104 14.054L21.212 18.054C20.9431 18.9148 20.4099 19.6708 19.6868 20.2162C18.9514 20.7635 18.0569 21.0594 17.1376 21.0594C17.072 21.0619 17.0064 21.0583 16.9415 21.0486Z" fill="#FEFEFE"/>
</svg>
