<svg width="16" height="16" viewBox="0 0 16 16" fill="none" xmlns="http://www.w3.org/2000/svg">
<path fill-rule="evenodd" clip-rule="evenodd" d="M15.8016 1.55674C15.8388 1.41941 15.8483 1.27615 15.8296 1.13516C15.811 0.994174 15.7644 0.858231 15.6927 0.735121C15.6104 0.603902 15.5025 0.490376 15.3752 0.401249C15.248 0.312122 15.104 0.249201 14.9519 0.216202C14.671 0.163507 14.3804 0.219191 14.1395 0.371884C13.8985 0.524577 13.7254 0.762765 13.6555 1.03782C13.6555 1.09188 12.4353 5.96755 11.4766 9.67566L11.4548 9.75134L11.433 9.67566L9.25416 1.04863C9.21221 0.83804 9.10615 0.645294 8.95029 0.496428C8.79443 0.347562 8.59628 0.24975 8.38261 0.216202C8.31797 0.203559 8.25238 0.196326 8.18651 0.19458C7.68538 0.19458 7.2496 0.540526 7.10798 1.03782C7.09708 1.09188 5.87692 5.96755 4.92912 9.67566L4.90733 9.75134L4.88554 9.67566C3.95952 5.96755 2.70668 1.09188 2.70668 1.03782C2.65532 0.830903 2.54465 0.643181 2.38804 0.497367C2.23143 0.351553 2.0356 0.253893 1.82424 0.216202C1.64287 0.184382 1.45637 0.197799 1.28152 0.255245C1.10667 0.312691 0.94895 0.412366 0.822549 0.545303C0.696147 0.678241 0.605026 0.840272 0.557383 1.01682C0.509739 1.19338 0.507066 1.37891 0.549605 1.55674L3.82879 14.5621C3.89077 14.8005 4.02984 15.012 4.22467 15.1644C4.4195 15.3167 4.65932 15.4014 4.90733 15.4054C5.44115 15.4054 5.86603 15.0594 5.97497 14.5621L8.15383 5.92431L8.18651 5.84863L8.2083 5.92431C9.167 9.67566 10.3872 14.573 10.3872 14.573C10.4522 14.8067 10.5909 15.0136 10.7831 15.1634C10.9752 15.3132 11.2106 15.398 11.4548 15.4054C11.7058 15.4132 11.9515 15.3329 12.1488 15.1786C12.3461 15.0244 12.4822 14.8061 12.5333 14.5621L15.8016 1.55674Z" fill="#333545"/>
</svg>
