<svg width="20" height="28" viewBox="0 0 20 28" fill="none" xmlns="http://www.w3.org/2000/svg">
<path d="M10.2844 7.44725C7.99111 7.44725 6.39128 8.11733 4.84407 9.64791V0.782593H0.207214V17.214C0.207214 23.3653 4.61928 27.5786 9.57658 27.5786C15.0767 27.5786 19.9144 23.2906 19.9144 17.5153C19.9144 11.8124 15.4617 7.44966 10.2844 7.44966V7.44725ZM10.2557 22.876C9.2152 22.876 8.19804 22.565 7.33287 21.9823C6.4677 21.3996 5.79339 20.5714 5.3952 19.6025C4.997 18.6335 4.89282 17.5673 5.09582 16.5387C5.29881 15.51 5.79987 14.5652 6.53564 13.8235C7.2714 13.0819 8.20882 12.5769 9.22936 12.3723C10.2499 12.1677 11.3077 12.2727 12.269 12.674C13.2303 13.0754 14.052 13.7551 14.6301 14.6271C15.2082 15.4992 15.5167 16.5244 15.5167 17.5732C15.5167 18.9796 14.9624 20.3284 13.9758 21.3228C12.9892 22.3173 11.651 22.876 10.2557 22.876Z" fill="#33475B"/>
</svg>
