<svg width="39" height="40" viewBox="0 0 39 40" fill="none" xmlns="http://www.w3.org/2000/svg">
<path d="M29.6117 12.9798V8.28439C30.2273 7.99445 30.7486 7.53424 31.1148 6.95731C31.481 6.38038 31.6771 5.71047 31.6803 5.02558V4.91711C31.6803 3.95821 31.3023 3.03858 30.6296 2.36053C29.9569 1.68249 29.0446 1.30156 28.0932 1.30156H27.9856C27.0343 1.30156 26.1219 1.68249 25.4492 2.36053C24.7765 3.03858 24.3986 3.95821 24.3986 4.91711V5.02558C24.4017 5.71047 24.5978 6.38038 24.964 6.95731C25.3302 7.53424 25.8515 7.99445 26.4671 8.28439V12.9798C24.6977 13.2526 23.0313 13.9918 21.6365 15.1226L8.86187 5.09307C8.95228 4.76233 9.00049 4.42133 9.00535 4.0783C9.00677 3.27254 8.77107 2.48445 8.32807 1.81372C7.88507 1.14298 7.25467 0.619745 6.5166 0.31018C5.77854 0.000615035 4.96597 -0.0813674 4.18167 0.0746023C3.39738 0.230572 2.67659 0.617487 2.11048 1.18641C1.54437 1.75533 1.15838 2.48069 1.00131 3.27076C0.844254 4.06082 0.923186 4.88009 1.22813 5.62493C1.53306 6.36977 2.05031 7.00673 2.71444 7.45523C3.37857 7.90373 4.15975 8.14363 4.95916 8.14459C5.65821 8.14144 6.34422 7.95362 6.94878 7.59985L19.5297 17.4655C18.3993 19.1864 17.8095 21.2107 17.8372 23.2745C17.8649 25.3383 18.5089 27.3458 19.6852 29.0352L15.859 32.8918C15.5496 32.7922 15.2272 32.7394 14.9025 32.7351C14.2462 32.7356 13.6048 32.9322 13.0593 33.3C12.5138 33.6678 12.0888 34.1903 11.8378 34.8015C11.5869 35.4128 11.5214 36.0852 11.6495 36.734C11.7777 37.3827 12.0938 37.9787 12.5578 38.4464C13.0219 38.9141 13.6131 39.2327 14.2567 39.3619C14.9004 39.4911 15.5675 39.425 16.174 39.1721C16.7804 38.9192 17.2988 38.4907 17.6637 37.9409C18.0286 37.3911 18.2236 36.7446 18.2241 36.0831C18.2199 35.7558 18.1676 35.4308 18.0686 35.119L21.8541 31.3034C23.0885 32.2608 24.5239 32.9208 26.0504 33.2328C27.5769 33.5447 29.154 33.5004 30.6609 33.1032C32.1678 32.706 33.5645 31.9664 34.744 30.9412C35.9235 29.9159 36.8546 28.6321 37.466 27.1882C38.0773 25.7442 38.3526 24.1784 38.2709 22.6106C38.1891 21.0429 37.7525 19.5147 36.9944 18.1433C36.2363 16.7719 35.1768 15.5936 33.8972 14.6986C32.6175 13.8035 31.1516 13.2156 29.6117 12.9798ZM28.043 28.4206C27.0075 28.4196 25.9955 28.1093 25.135 27.5288C24.2744 26.9483 23.6039 26.1237 23.2082 25.1592C22.8125 24.1947 22.7093 23.1336 22.9117 22.11C23.1142 21.0864 23.6131 20.1463 24.3454 19.4084C25.0778 18.6706 26.0108 18.1681 27.0264 17.9646C28.042 17.761 29.0947 17.8655 30.0514 18.2648C31.0081 18.6641 31.8259 19.3403 32.4014 20.2079C32.977 21.0756 33.2844 22.0957 33.2849 23.1395C33.2849 24.5395 32.7331 25.8821 31.751 26.8721C30.7688 27.862 29.4367 28.4182 28.0478 28.4182" fill="#FF7A59"/>
</svg>
