<svg width="21" height="27" viewBox="0 0 21 27" fill="none" xmlns="http://www.w3.org/2000/svg">
<path d="M20.632 10.2697C20.632 4.48482 15.8038 0.206421 10.2941 0.206421C5.33683 0.206421 0.924774 4.41974 0.924774 10.571V27.0121H5.56162V18.1347C7.10644 19.6629 8.70865 20.3354 10.9996 20.3354C16.1769 20.3354 20.6296 15.975 20.6296 10.2697H20.632ZM16.2414 10.2118C16.2414 11.2606 15.9329 12.2859 15.3548 13.1579C14.7767 14.03 13.9551 14.7096 12.9937 15.111C12.0324 15.5123 10.9746 15.6174 9.95407 15.4127C8.93354 15.2081 7.99613 14.7031 7.26036 13.9615C6.5246 13.2199 6.02354 12.275 5.82054 11.2464C5.61754 10.2177 5.72173 9.15151 6.11992 8.18255C6.51811 7.21359 7.19243 6.3854 8.0576 5.80272C8.92276 5.22004 9.93992 4.90904 10.9804 4.90904C12.3757 4.90904 13.7139 5.46773 14.7005 6.46219C15.6872 7.45666 16.2414 8.80545 16.2414 10.2118Z" fill="#33475B"/>
</svg>
