<svg width="18" height="28" viewBox="0 0 18 28" fill="none" xmlns="http://www.w3.org/2000/svg">
<path d="M5.9644 8.5007C5.9644 6.13613 7.5164 5.38651 9.21666 5.38651C10.5869 5.38651 12.3972 6.43743 13.5809 7.71251L16.6131 4.11142C15.0994 2.04815 12.0289 0.621216 9.51558 0.621216C4.49371 0.621216 0.861227 3.58597 0.861227 8.5007C0.861227 17.6191 11.9189 14.7267 11.9189 19.8294C11.9189 21.4034 10.4028 22.7942 8.66664 22.7942C5.92853 22.7942 5.04133 21.4444 3.78348 20.0174L0.418823 23.5438C2.57105 26.2072 5.22546 27.5595 8.40598 27.5595C13.1768 27.5595 17.0149 24.5585 17.0149 19.868C17.0149 9.74445 5.95722 12.89 5.95722 8.5007" fill="#33475B"/>
</svg>
